<?xml version="1.0" encoding="utf-8"?>
<!-- Generator: Adobe Illustrator 16.0.0, SVG Export Plug-In . SVG Version: 6.00 Build 0)  -->
<!DOCTYPE svg PUBLIC "-//W3C//DTD SVG 1.1//EN" "http://www.w3.org/Graphics/SVG/1.1/DTD/svg11.dtd">
<svg version="1.1" id="Layer_1" xmlns="http://www.w3.org/2000/svg" xmlns:xlink="http://www.w3.org/1999/xlink" x="0px" y="0px"
	 width="15px" height="24px" viewBox="0 0 15 24" enable-background="new 0 0 15 24" xml:space="preserve">
<g>
	<path fill="none" d="M-1.253,11.871c0-4.27,0-8.541-0.004-12.811c0-0.136,0.035-0.154,0.161-0.154
		C4.3-1.091,9.695-1.091,15.092-1.095c0.137,0,0.156,0.035,0.156,0.161c-0.004,8.541-0.004,17.081,0,25.622
		c0,0.133-0.033,0.153-0.162,0.153c-5.395-0.004-10.792-0.004-16.188,0c-0.136,0-0.154-0.034-0.154-0.159
		C-1.253,20.411-1.253,16.141-1.253,11.871z M4.585,16.446c0,1.923,0,3.998,0,6.074c0,0.735,0.427,1.174,1.148,1.174
		c0.927,0,1.341-0.358,1.341-1.168c0.001-2.098,0-4.194,0-6.291c0-0.597,0-0.584,0.59-0.601c0.23-0.006,0.287,0.069,0.286,0.293
		c-0.008,2.205-0.005,4.411-0.004,6.619c0.001,0.107,0.003,0.217,0.026,0.322c0.138,0.626,0.664,0.908,1.503,0.82
		c0.574-0.062,0.959-0.506,0.957-1.12c-0.01-4.184-0.035-8.368,0.211-12.546c0.006-0.118-0.039-0.276,0.123-0.322
		c0.148-0.042,0.197,0.107,0.268,0.196c0.695,0.872,1.375,1.753,2.076,2.616c0.279,0.341,0.809,0.363,1.152,0.093
		c0.34-0.271,0.436-0.788,0.186-1.143c-1.047-1.477-2.031-3-3.199-4.387c-0.479-0.57-0.936-1.171-1.797-1.208
		c-1.07-0.045-2.14-0.024-3.206-0.052C5.152,5.789,4.414,6.275,3.764,7.092c-1.087,1.372-2.078,2.811-3.096,4.231
		c-0.337,0.47-0.301,0.988,0.104,1.293c0.406,0.307,0.926,0.19,1.285-0.27c0.658-0.848,1.325-1.69,1.989-2.533
		C4.1,9.747,4.152,9.667,4.256,9.698C4.367,9.731,4.371,9.83,4.373,9.922C4.423,12.047,4.609,14.169,4.585,16.446z M7.507,0.448
		c-1.37,0.002-2.482,1.12-2.48,2.492C5.029,4.316,6.14,5.426,7.513,5.422c1.37-0.003,2.479-1.11,2.481-2.471
		C9.994,1.563,8.885,0.446,7.507,0.448z"/>
	<path fill="#F7941E" d="M4.585,16.446c0.023-2.277-0.162-4.399-0.212-6.525C4.37,9.829,4.367,9.731,4.255,9.697
		C4.151,9.667,4.1,9.747,4.047,9.813c-0.664,0.843-1.331,1.685-1.99,2.532c-0.358,0.461-0.878,0.577-1.284,0.271
		c-0.405-0.305-0.441-0.823-0.104-1.293c1.018-1.421,2.007-2.859,3.095-4.231c0.649-0.817,1.387-1.304,2.483-1.276
		c1.066,0.026,2.136,0.007,3.206,0.051c0.861,0.037,1.316,0.638,1.795,1.208c1.17,1.388,2.154,2.911,3.201,4.387
		c0.25,0.354,0.154,0.872-0.186,1.142c-0.344,0.271-0.875,0.249-1.152-0.092c-0.701-0.862-1.381-1.744-2.076-2.616
		c-0.07-0.089-0.119-0.238-0.268-0.196c-0.164,0.046-0.117,0.205-0.123,0.322c-0.248,4.179-0.223,8.364-0.211,12.545
		c0.002,0.614-0.383,1.061-0.957,1.122c-0.84,0.088-1.365-0.196-1.503-0.82c-0.023-0.105-0.026-0.215-0.026-0.324
		c-0.002-2.206-0.004-4.414,0.004-6.62c0-0.221-0.056-0.296-0.286-0.29c-0.591,0.015-0.591,0.002-0.591,0.599
		c0,2.097,0.001,4.193,0,6.293c0,0.81-0.415,1.168-1.341,1.168c-0.721,0-1.148-0.438-1.148-1.176
		C4.585,20.444,4.585,18.369,4.585,16.446z"/>
	<path fill="#F7941E" d="M7.507,0.448c1.378-0.002,2.487,1.115,2.487,2.503C9.992,4.312,8.883,5.419,7.513,5.422
		C6.14,5.426,5.029,4.315,5.027,2.94C5.024,1.568,6.137,0.451,7.507,0.448z"/>
</g>
</svg>
